<?xml version="1.0" encoding="utf-8"?>
<svg width="524" height="328" viewBox="0 0 524 328" xmlns="http://www.w3.org/2000/svg">
<rect id="frame" x="0" y="0" width="524" height="328" fill="#FFF" stroke="none" stroke-width="0"/>

<!-- Association correspond -->
<g>
	<line x1="181" y1="147" x2="181" y2="47" stroke="#000" stroke-width="1"/>
	<text x="186" y="92" fill="#000" font-family="Futura" font-size="11">0,N</text>
	<line x1="306" y1="47" x2="181" y2="47" stroke="#000" stroke-width="1"/>
	<text x="250" y="63" fill="#000" font-family="Futura" font-size="11">1,1</text>
	<g>
		<path d="M228 18 a14 14 90 0 1 14 14 V46 h-122 V32 a14 14 90 0 1 14 -14" fill="#FFF" stroke="#FFF" stroke-width="0"/>
		<path d="M242 46 v16 a14 14 90 0 1 -14 14 H134 a14 14 90 0 1 -14 -14 V46 H122" fill="#FFF" stroke="#FFF" stroke-width="0"/>
		<rect x="120" y="18" width="122" height="58" fill="none" rx="14" stroke="#000" stroke-width="1.5"/>
		<line x1="120" y1="46" x2="242" y2="46" stroke="#000" stroke-width="1.5"/>
		<text x="127" y="39.3" fill="#000" font-family="Copperplate" font-size="18">correspond</text>
	</g>
</g>

<!-- Association borrow -->
<g>
	<line x1="306" y1="47" x2="427" y2="47" stroke="#000" stroke-width="1"/>
	<text x="344" y="63" fill="#000" font-family="Futura" font-size="11">0,N</text>
	<line x1="427" y1="247" x2="427" y2="47" stroke="#000" stroke-width="1"/>
	<text x="432" y="167" fill="#000" font-family="Futura" font-size="11">0,N</text>
	<g>
		<path d="M472 10 a14 14 90 0 1 14 14 V38 h-118 V24 a14 14 90 0 1 14 -14" fill="#FFF" stroke="#FFF" stroke-width="0"/>
		<path d="M486 38 v32 a14 14 90 0 1 -14 14 H382 a14 14 90 0 1 -14 -14 V38 H118" fill="#FFF" stroke="#FFF" stroke-width="0"/>
		<rect x="368" y="10" width="118" height="74" fill="none" rx="14" stroke="#000" stroke-width="1.5"/>
		<line x1="368" y1="38" x2="486" y2="38" stroke="#000" stroke-width="1.5"/>
		<text x="392" y="31.3" fill="#000" font-family="Copperplate" font-size="18">borrow</text>
		<text x="375" y="56.1" fill="#000" font-family="Gill Sans" font-size="15">borrowing_start</text>
		<text x="375" y="73.1" fill="#000" font-family="Gill Sans" font-size="15">borrowing_end</text>
	</g>
</g>

<!-- Association belongs -->
<g>
	<line x1="181" y1="147" x2="54" y2="147" stroke="#000" stroke-width="1"/>
	<text x="105" y="163" fill="#000" font-family="Futura" font-size="11">1,1</text>
	<line x1="54" y1="47" x2="54" y2="147" stroke="#000" stroke-width="1"/>
	<text x="59" y="101" fill="#000" font-family="Futura" font-size="11">1,N</text>
	<g>
		<path d="M85 118 a14 14 90 0 1 14 14 V146 h-90 V132 a14 14 90 0 1 14 -14" fill="#FFF" stroke="#FFF" stroke-width="0"/>
		<path d="M99 146 v16 a14 14 90 0 1 -14 14 H23 a14 14 90 0 1 -14 -14 V146 H90" fill="#FFF" stroke="#FFF" stroke-width="0"/>
		<rect x="9" y="118" width="90" height="58" fill="none" rx="14" stroke="#000" stroke-width="1.5"/>
		<line x1="9" y1="146" x2="99" y2="146" stroke="#000" stroke-width="1.5"/>
		<text x="16" y="139.3" fill="#000" font-family="Copperplate" font-size="18">belongs</text>
	</g>
</g>

<!-- Association publish -->
<g>
	<line x1="181" y1="147" x2="306" y2="147" stroke="#000" stroke-width="1"/>
	<text x="239" y="163" fill="#000" font-family="Futura" font-size="11">1,1</text>
	<line x1="306" y1="247" x2="306" y2="147" stroke="#000" stroke-width="1"/>
	<text x="311" y="201" fill="#000" font-family="Futura" font-size="11">1,N</text>
	<g>
		<path d="M335 118 a14 14 90 0 1 14 14 V146 h-86 V132 a14 14 90 0 1 14 -14" fill="#FFF" stroke="#FFF" stroke-width="0"/>
		<path d="M349 146 v16 a14 14 90 0 1 -14 14 H277 a14 14 90 0 1 -14 -14 V146 H86" fill="#FFF" stroke="#FFF" stroke-width="0"/>
		<rect x="263" y="118" width="86" height="58" fill="none" rx="14" stroke="#000" stroke-width="1.5"/>
		<line x1="263" y1="146" x2="349" y2="146" stroke="#000" stroke-width="1.5"/>
		<text x="270" y="139.3" fill="#000" font-family="Copperplate" font-size="18">publish</text>
		<text x="270" y="164.1" fill="#000" font-family="Gill Sans" font-size="15">year</text>
	</g>
</g>

<!-- Association compose -->
<g>
	<line x1="54" y1="247" x2="181" y2="247" stroke="#000" stroke-width="1"/>
	<text x="101" y="263" fill="#000" font-family="Futura" font-size="11">0,N</text>
	<line x1="181" y1="147" x2="181" y2="247" stroke="#000" stroke-width="1"/>
	<text x="186" y="210" fill="#000" font-family="Futura" font-size="11">1,N</text>
	<g>
		<path d="M212 218 a14 14 90 0 1 14 14 V246 h-90 V232 a14 14 90 0 1 14 -14" fill="#FFF" stroke="#FFF" stroke-width="0"/>
		<path d="M226 246 v16 a14 14 90 0 1 -14 14 H150 a14 14 90 0 1 -14 -14 V246 H90" fill="#FFF" stroke="#FFF" stroke-width="0"/>
		<rect x="136" y="218" width="90" height="58" fill="none" rx="14" stroke="#000" stroke-width="1.5"/>
		<line x1="136" y1="246" x2="226" y2="246" stroke="#000" stroke-width="1.5"/>
		<text x="143" y="239.3" fill="#000" font-family="Copperplate" font-size="18">compose</text>
	</g>
</g>

<!-- Entity genre -->
<g>
	<g>
		<rect x="18" y="9" width="72" height="30" fill="#FFF" stroke="#FFF" stroke-width="0" opacity="1"/>
		<rect x="18" y="39" width="72" height="46" fill="#FFF" stroke="#FFF" stroke-width="0" opacity="1"/>
		<rect x="18" y="9" width="72" height="76" fill="none" stroke="#000" stroke-width="1.5" opacity="1"/>
		<line x1="18" y1="39" x2="90" y2="39" stroke="#000" stroke-width="1.5"/>
	</g>
	<text x="27" y="30.3" fill="#000" font-family="Copperplate" font-size="18">genre</text>
	<text x="26" y="56.1" fill="#000" font-family="Gill Sans" font-size="15">id_genre</text>
	<line x1="26" y1="59" x2="82" y2="59" stroke="#000" stroke-width="1"/>
	<text x="26" y="73.1" fill="#000" font-family="Gill Sans" font-size="15">name</text>
</g>

<!-- Entity copy -->
<g>
	<g>
		<rect x="273" y="17" width="66" height="30" fill="#FFF" stroke="#FFF" stroke-width="0" opacity="1"/>
		<rect x="273" y="47" width="66" height="30" fill="#FFF" stroke="#FFF" stroke-width="0" opacity="1"/>
		<rect x="273" y="17" width="66" height="60" fill="none" stroke="#000" stroke-width="1.5" opacity="1"/>
		<line x1="273" y1="47" x2="339" y2="47" stroke="#000" stroke-width="1.5"/>
	</g>
	<text x="285" y="38.3" fill="#000" font-family="Copperplate" font-size="18">copy</text>
	<text x="281" y="64.1" fill="#000" font-family="Gill Sans" font-size="15">id_copy</text>
	<line x1="281" y1="67" x2="331" y2="67" stroke="#000" stroke-width="1"/>
</g>

<!-- Entity document -->
<g>
	<g>
		<rect x="128" y="100" width="106" height="30" fill="#FFF" stroke="#FFF" stroke-width="0" opacity="1"/>
		<rect x="128" y="130" width="106" height="64" fill="#FFF" stroke="#FFF" stroke-width="0" opacity="1"/>
		<rect x="128" y="100" width="106" height="94" fill="none" stroke="#000" stroke-width="1.5" opacity="1"/>
		<line x1="128" y1="130" x2="234" y2="130" stroke="#000" stroke-width="1.5"/>
	</g>
	<text x="137" y="121.3" fill="#000" font-family="Copperplate" font-size="18">document</text>
	<text x="136" y="147.1" fill="#000" font-family="Gill Sans" font-size="15">id_document</text>
	<line x1="136" y1="150" x2="219" y2="150" stroke="#000" stroke-width="1"/>
	<text x="136" y="164.1" fill="#000" font-family="Gill Sans" font-size="15">title</text>
	<text x="136" y="181" fill="#000" font-family="Gill Sans" font-size="15">pages_nbr</text>
</g>

<!-- Entity author -->
<g>
	<g>
		<rect x="12" y="200" width="84" height="30" fill="#FFF" stroke="#FFF" stroke-width="0" opacity="1"/>
		<rect x="12" y="230" width="84" height="64" fill="#FFF" stroke="#FFF" stroke-width="0" opacity="1"/>
		<rect x="12" y="200" width="84" height="94" fill="none" stroke="#000" stroke-width="1.5" opacity="1"/>
		<line x1="12" y1="230" x2="96" y2="230" stroke="#000" stroke-width="1.5"/>
	</g>
	<text x="21" y="221.3" fill="#000" font-family="Copperplate" font-size="18">author</text>
	<text x="20" y="247.1" fill="#000" font-family="Gill Sans" font-size="15">id_author</text>
	<line x1="20" y1="250" x2="82" y2="250" stroke="#000" stroke-width="1"/>
	<text x="20" y="264.1" fill="#000" font-family="Gill Sans" font-size="15">first_name</text>
	<text x="20" y="281" fill="#000" font-family="Gill Sans" font-size="15">last_name</text>
</g>

<!-- Entity edition -->
<g>
	<g>
		<rect x="265" y="209" width="82" height="30" fill="#FFF" stroke="#FFF" stroke-width="0" opacity="1"/>
		<rect x="265" y="239" width="82" height="46" fill="#FFF" stroke="#FFF" stroke-width="0" opacity="1"/>
		<rect x="265" y="209" width="82" height="76" fill="none" stroke="#000" stroke-width="1.5" opacity="1"/>
		<line x1="265" y1="239" x2="347" y2="239" stroke="#000" stroke-width="1.5"/>
	</g>
	<text x="273" y="230.3" fill="#000" font-family="Copperplate" font-size="18">edition</text>
	<text x="273" y="256.1" fill="#000" font-family="Gill Sans" font-size="15">id_edition</text>
	<line x1="273" y1="259" x2="337" y2="259" stroke="#000" stroke-width="1"/>
	<text x="273" y="273.1" fill="#000" font-family="Gill Sans" font-size="15">name</text>
</g>

<!-- Entity user -->
<g>
	<g>
		<rect x="389" y="175" width="76" height="30" fill="#FFF" stroke="#FFF" stroke-width="0" opacity="1"/>
		<rect x="389" y="205" width="76" height="114" fill="#FFF" stroke="#FFF" stroke-width="0" opacity="1"/>
		<rect x="389" y="175" width="76" height="144" fill="none" stroke="#000" stroke-width="1.5" opacity="1"/>
		<line x1="389" y1="205" x2="465" y2="205" stroke="#000" stroke-width="1.5"/>
	</g>
	<text x="405" y="196.3" fill="#000" font-family="Copperplate" font-size="18">user</text>
	<text x="397" y="222.1" fill="#000" font-family="Gill Sans" font-size="15">id_user</text>
	<line x1="397" y1="225" x2="445" y2="225" stroke="#000" stroke-width="1"/>
	<text x="397" y="239.1" fill="#000" font-family="Gill Sans" font-size="15">is_admin</text>
	<text x="397" y="256.1" fill="#000" font-family="Gill Sans" font-size="15">name</text>
	<text x="397" y="273.1" fill="#000" font-family="Gill Sans" font-size="15">surname</text>
	<text x="397" y="290" fill="#000" font-family="Gill Sans" font-size="15">email</text>
	<text x="397" y="307" fill="#000" font-family="Gill Sans" font-size="15">password</text>
</g>
</svg>