<?xml version="1.0" encoding="utf-8"?>
<svg width="617" height="328" viewBox="0 0 617 328" xmlns="http://www.w3.org/2000/svg">
<rect id="frame" x="0" y="0" width="617" height="328" fill="#FFF" stroke="none" stroke-width="0"/>

<!-- Association Correspondre -->
<g>
	<line x1="208" y1="147" x2="208" y2="47" stroke="#000" stroke-width="1"/>
	<text x="213" y="92" fill="#000" font-family="Futura" font-size="11">0,N</text>
	<line x1="370" y1="47" x2="208" y2="47" stroke="#000" stroke-width="1"/>
	<text x="287" y="63" fill="#000" font-family="Futura" font-size="11">1,1</text>
	<g>
		<path d="M267 18 a14 14 90 0 1 14 14 V46 h-146 V32 a14 14 90 0 1 14 -14" fill="#FFF" stroke="#FFF" stroke-width="0"/>
		<path d="M281 46 v16 a14 14 90 0 1 -14 14 H149 a14 14 90 0 1 -14 -14 V46 H146" fill="#FFF" stroke="#FFF" stroke-width="0"/>
		<rect x="135" y="18" width="146" height="58" fill="none" rx="14" stroke="#000" stroke-width="1.5"/>
		<line x1="135" y1="46" x2="281" y2="46" stroke="#000" stroke-width="1.5"/>
		<text x="142" y="39.3" fill="#000" font-family="Copperplate" font-size="18">Correspondre</text>
	</g>
</g>

<!-- Association Emprunter -->
<g>
	<line x1="370" y1="47" x2="517" y2="47" stroke="#000" stroke-width="1"/>
	<text x="435" y="63" fill="#000" font-family="Futura" font-size="11">0,N</text>
	<line x1="517" y1="247" x2="517" y2="47" stroke="#000" stroke-width="1"/>
	<text x="522" y="167" fill="#000" font-family="Futura" font-size="11">0,N</text>
	<g>
		<path d="M561 10 a14 14 90 0 1 14 14 V38 h-116 V24 a14 14 90 0 1 14 -14" fill="#FFF" stroke="#FFF" stroke-width="0"/>
		<path d="M575 38 v32 a14 14 90 0 1 -14 14 H473 a14 14 90 0 1 -14 -14 V38 H116" fill="#FFF" stroke="#FFF" stroke-width="0"/>
		<rect x="459" y="10" width="116" height="74" fill="none" rx="14" stroke="#000" stroke-width="1.5"/>
		<line x1="459" y1="38" x2="575" y2="38" stroke="#000" stroke-width="1.5"/>
		<text x="467" y="31.3" fill="#000" font-family="Copperplate" font-size="18">Emprunter</text>
		<text x="466" y="56.1" fill="#000" font-family="Gill Sans" font-size="15">date_emprunt</text>
		<text x="466" y="73.1" fill="#000" font-family="Gill Sans" font-size="15">date_retour</text>
	</g>
</g>

<!-- Association Appartenir -->
<g>
	<line x1="208" y1="147" x2="67" y2="147" stroke="#000" stroke-width="1"/>
	<text x="130" y="163" fill="#000" font-family="Futura" font-size="11">1,N</text>
	<line x1="67" y1="47" x2="67" y2="147" stroke="#000" stroke-width="1"/>
	<text x="72" y="101" fill="#000" font-family="Futura" font-size="11">0,N</text>
	<g>
		<path d="M111 118 a14 14 90 0 1 14 14 V146 h-116 V132 a14 14 90 0 1 14 -14" fill="#FFF" stroke="#FFF" stroke-width="0"/>
		<path d="M125 146 v16 a14 14 90 0 1 -14 14 H23 a14 14 90 0 1 -14 -14 V146 H116" fill="#FFF" stroke="#FFF" stroke-width="0"/>
		<rect x="9" y="118" width="116" height="58" fill="none" rx="14" stroke="#000" stroke-width="1.5"/>
		<line x1="9" y1="146" x2="125" y2="146" stroke="#000" stroke-width="1.5"/>
		<text x="16" y="139.3" fill="#000" font-family="Copperplate" font-size="18">Appartenir</text>
	</g>
</g>

<!-- Association Publier -->
<g>
	<line x1="208" y1="147" x2="370" y2="147" stroke="#000" stroke-width="1"/>
	<text x="267" y="163" fill="#000" font-family="Futura" font-size="11">1,1</text>
	<line x1="370" y1="247" x2="370" y2="147" stroke="#000" stroke-width="1"/>
	<text x="375" y="201" fill="#000" font-family="Futura" font-size="11">0,N</text>
	<g>
		<path d="M400 118 a14 14 90 0 1 14 14 V146 h-88 V132 a14 14 90 0 1 14 -14" fill="#FFF" stroke="#FFF" stroke-width="0"/>
		<path d="M414 146 v16 a14 14 90 0 1 -14 14 H340 a14 14 90 0 1 -14 -14 V146 H88" fill="#FFF" stroke="#FFF" stroke-width="0"/>
		<rect x="326" y="118" width="88" height="58" fill="none" rx="14" stroke="#000" stroke-width="1.5"/>
		<line x1="326" y1="146" x2="414" y2="146" stroke="#000" stroke-width="1.5"/>
		<text x="334" y="139.3" fill="#000" font-family="Copperplate" font-size="18">Publier</text>
		<text x="333" y="164.1" fill="#000" font-family="Gill Sans" font-size="15">Année</text>
	</g>
</g>

<!-- Association Ecrire -->
<g>
	<line x1="67" y1="247" x2="208" y2="247" stroke="#000" stroke-width="1"/>
	<text x="114" y="263" fill="#000" font-family="Futura" font-size="11">0,N</text>
	<line x1="208" y1="147" x2="208" y2="247" stroke="#000" stroke-width="1"/>
	<text x="213" y="210" fill="#000" font-family="Futura" font-size="11">1,N</text>
	<g>
		<path d="M232 218 a14 14 90 0 1 14 14 V246 h-76 V232 a14 14 90 0 1 14 -14" fill="#FFF" stroke="#FFF" stroke-width="0"/>
		<path d="M246 246 v16 a14 14 90 0 1 -14 14 H184 a14 14 90 0 1 -14 -14 V246 H76" fill="#FFF" stroke="#FFF" stroke-width="0"/>
		<rect x="170" y="218" width="76" height="58" fill="none" rx="14" stroke="#000" stroke-width="1.5"/>
		<line x1="170" y1="246" x2="246" y2="246" stroke="#000" stroke-width="1.5"/>
		<text x="178" y="239.3" fill="#000" font-family="Copperplate" font-size="18">Ecrire</text>
	</g>
</g>

<!-- Entity Genre -->
<g>
	<g>
		<rect x="30" y="9" width="74" height="30" fill="#FFF" stroke="#FFF" stroke-width="0" opacity="1"/>
		<rect x="30" y="39" width="74" height="46" fill="#FFF" stroke="#FFF" stroke-width="0" opacity="1"/>
		<rect x="30" y="9" width="74" height="76" fill="none" stroke="#000" stroke-width="1.5" opacity="1"/>
		<line x1="30" y1="39" x2="104" y2="39" stroke="#000" stroke-width="1.5"/>
	</g>
	<text x="39" y="30.3" fill="#000" font-family="Copperplate" font-size="18">Genre</text>
	<text x="38" y="56.1" fill="#000" font-family="Gill Sans" font-size="15">id_genre</text>
	<line x1="38" y1="59" x2="94" y2="59" stroke="#000" stroke-width="1"/>
	<text x="38" y="73.1" fill="#000" font-family="Gill Sans" font-size="15">nom</text>
</g>

<!-- Entity Exemplaire -->
<g>
	<g>
		<rect x="310" y="17" width="120" height="30" fill="#FFF" stroke="#FFF" stroke-width="0" opacity="1"/>
		<rect x="310" y="47" width="120" height="30" fill="#FFF" stroke="#FFF" stroke-width="0" opacity="1"/>
		<rect x="310" y="17" width="120" height="60" fill="none" stroke="#000" stroke-width="1.5" opacity="1"/>
		<line x1="310" y1="47" x2="430" y2="47" stroke="#000" stroke-width="1.5"/>
	</g>
	<text x="319" y="38.3" fill="#000" font-family="Copperplate" font-size="18">Exemplaire</text>
	<text x="318" y="64.1" fill="#000" font-family="Gill Sans" font-size="15">id_exemplaire</text>
	<line x1="318" y1="67" x2="407" y2="67" stroke="#000" stroke-width="1"/>
</g>

<!-- Entity Document -->
<g>
	<g>
		<rect x="154" y="100" width="108" height="30" fill="#FFF" stroke="#FFF" stroke-width="0" opacity="1"/>
		<rect x="154" y="130" width="108" height="64" fill="#FFF" stroke="#FFF" stroke-width="0" opacity="1"/>
		<rect x="154" y="100" width="108" height="94" fill="none" stroke="#000" stroke-width="1.5" opacity="1"/>
		<line x1="154" y1="130" x2="262" y2="130" stroke="#000" stroke-width="1.5"/>
	</g>
	<text x="163" y="121.3" fill="#000" font-family="Copperplate" font-size="18">Document</text>
	<text x="162" y="147.1" fill="#000" font-family="Gill Sans" font-size="15">id_document</text>
	<line x1="162" y1="150" x2="245" y2="150" stroke="#000" stroke-width="1"/>
	<text x="162" y="164.1" fill="#000" font-family="Gill Sans" font-size="15">titre</text>
	<text x="162" y="181" fill="#000" font-family="Gill Sans" font-size="15">nbre_pages</text>
</g>

<!-- Entity Auteur -->
<g>
	<g>
		<rect x="25" y="209" width="84" height="30" fill="#FFF" stroke="#FFF" stroke-width="0" opacity="1"/>
		<rect x="25" y="239" width="84" height="46" fill="#FFF" stroke="#FFF" stroke-width="0" opacity="1"/>
		<rect x="25" y="209" width="84" height="76" fill="none" stroke="#000" stroke-width="1.5" opacity="1"/>
		<line x1="25" y1="239" x2="109" y2="239" stroke="#000" stroke-width="1.5"/>
	</g>
	<text x="34" y="230.3" fill="#000" font-family="Copperplate" font-size="18">Auteur</text>
	<text x="33" y="256.1" fill="#000" font-family="Gill Sans" font-size="15">id_auteur</text>
	<line x1="33" y1="259" x2="94" y2="259" stroke="#000" stroke-width="1"/>
	<text x="33" y="273.1" fill="#000" font-family="Gill Sans" font-size="15">nom</text>
</g>

<!-- Entity Editeur -->
<g>
	<g>
		<rect x="319" y="209" width="102" height="30" fill="#FFF" stroke="#FFF" stroke-width="0" opacity="1"/>
		<rect x="319" y="239" width="102" height="46" fill="#FFF" stroke="#FFF" stroke-width="0" opacity="1"/>
		<rect x="319" y="209" width="102" height="76" fill="none" stroke="#000" stroke-width="1.5" opacity="1"/>
		<line x1="319" y1="239" x2="421" y2="239" stroke="#000" stroke-width="1.5"/>
	</g>
	<text x="334" y="230.3" fill="#000" font-family="Copperplate" font-size="18">Editeur</text>
	<text x="327" y="256.1" fill="#000" font-family="Gill Sans" font-size="15">id_editeur</text>
	<line x1="327" y1="259" x2="392" y2="259" stroke="#000" stroke-width="1"/>
	<text x="327" y="273.1" fill="#000" font-family="Gill Sans" font-size="15">denomination</text>
</g>

<!-- Entity Utilisateur -->
<g>
	<g>
		<rect x="455" y="175" width="124" height="30" fill="#FFF" stroke="#FFF" stroke-width="0" opacity="1"/>
		<rect x="455" y="205" width="124" height="114" fill="#FFF" stroke="#FFF" stroke-width="0" opacity="1"/>
		<rect x="455" y="175" width="124" height="144" fill="none" stroke="#000" stroke-width="1.5" opacity="1"/>
		<line x1="455" y1="205" x2="579" y2="205" stroke="#000" stroke-width="1.5"/>
	</g>
	<text x="464" y="196.3" fill="#000" font-family="Copperplate" font-size="18">Utilisateur</text>
	<text x="463" y="222.1" fill="#000" font-family="Gill Sans" font-size="15">id_utilisateur</text>
	<line x1="463" y1="225" x2="545" y2="225" stroke="#000" stroke-width="1"/>
	<text x="463" y="239.1" fill="#000" font-family="Gill Sans" font-size="15">id_profile</text>
	<text x="463" y="256.1" fill="#000" font-family="Gill Sans" font-size="15">nom</text>
	<text x="463" y="273.1" fill="#000" font-family="Gill Sans" font-size="15">prenom</text>
	<text x="463" y="290" fill="#000" font-family="Gill Sans" font-size="15">email</text>
	<text x="463" y="307" fill="#000" font-family="Gill Sans" font-size="15">password</text>
</g>
</svg>