<?xml version="1.0" encoding="utf-8"?>
<svg width="719" height="303" viewBox="0 0 719 303" xmlns="http://www.w3.org/2000/svg">
<rect id="frame" x="0" y="0" width="719" height="303" fill="#FFF" stroke="none" stroke-width="0"/>

<!-- Association Correspondre -->
<g>
	<line x1="208" y1="156" x2="208" y2="56" stroke="#000" stroke-width="1"/>
	<text x="213" y="101" fill="#000" font-family="Futura" font-size="11">0,N</text>
	<line x1="370" y1="56" x2="208" y2="56" stroke="#000" stroke-width="1"/>
	<text x="287" y="72" fill="#000" font-family="Futura" font-size="11">1,1</text>
	<g>
		<path d="M267 27 a14 14 90 0 1 14 14 V55 h-146 V41 a14 14 90 0 1 14 -14" fill="#FFF" stroke="#FFF" stroke-width="0"/>
		<path d="M281 55 v16 a14 14 90 0 1 -14 14 H149 a14 14 90 0 1 -14 -14 V55 H146" fill="#FFF" stroke="#FFF" stroke-width="0"/>
		<rect x="135" y="27" width="146" height="58" fill="none" rx="14" stroke="#000" stroke-width="1.5"/>
		<line x1="135" y1="55" x2="281" y2="55" stroke="#000" stroke-width="1.5"/>
		<text x="142" y="48.3" fill="#000" font-family="Copperplate" font-size="18">Correspondre</text>
	</g>
</g>

<!-- Association Concerner -->
<g>
	<line x1="657" y1="56" x2="517" y2="56" stroke="#000" stroke-width="1"/>
	<text x="581" y="72" fill="#000" font-family="Futura" font-size="11">1,1</text>
	<line x1="370" y1="56" x2="517" y2="56" stroke="#000" stroke-width="1"/>
	<text x="435" y="72" fill="#000" font-family="Futura" font-size="11">0,N</text>
	<g>
		<path d="M561 27 a14 14 90 0 1 14 14 V55 h-116 V41 a14 14 90 0 1 14 -14" fill="#FFF" stroke="#FFF" stroke-width="0"/>
		<path d="M575 55 v16 a14 14 90 0 1 -14 14 H473 a14 14 90 0 1 -14 -14 V55 H116" fill="#FFF" stroke="#FFF" stroke-width="0"/>
		<rect x="459" y="27" width="116" height="58" fill="none" rx="14" stroke="#000" stroke-width="1.5"/>
		<line x1="459" y1="55" x2="575" y2="55" stroke="#000" stroke-width="1.5"/>
		<text x="467" y="48.3" fill="#000" font-family="Copperplate" font-size="18">Concerner</text>
	</g>
</g>

<!-- Association Appartenir -->
<g>
	<line x1="208" y1="156" x2="67" y2="156" stroke="#000" stroke-width="1"/>
	<text x="130" y="172" fill="#000" font-family="Futura" font-size="11">1,N</text>
	<line x1="67" y1="56" x2="67" y2="156" stroke="#000" stroke-width="1"/>
	<text x="72" y="110" fill="#000" font-family="Futura" font-size="11">0,N</text>
	<g>
		<path d="M111 127 a14 14 90 0 1 14 14 V155 h-116 V141 a14 14 90 0 1 14 -14" fill="#FFF" stroke="#FFF" stroke-width="0"/>
		<path d="M125 155 v16 a14 14 90 0 1 -14 14 H23 a14 14 90 0 1 -14 -14 V155 H116" fill="#FFF" stroke="#FFF" stroke-width="0"/>
		<rect x="9" y="127" width="116" height="58" fill="none" rx="14" stroke="#000" stroke-width="1.5"/>
		<line x1="9" y1="155" x2="125" y2="155" stroke="#000" stroke-width="1.5"/>
		<text x="16" y="148.3" fill="#000" font-family="Copperplate" font-size="18">Appartenir</text>
	</g>
</g>

<!-- Association Publier -->
<g>
	<line x1="208" y1="156" x2="370" y2="156" stroke="#000" stroke-width="1"/>
	<text x="267" y="172" fill="#000" font-family="Futura" font-size="11">1,1</text>
	<line x1="370" y1="256" x2="370" y2="156" stroke="#000" stroke-width="1"/>
	<text x="375" y="210" fill="#000" font-family="Futura" font-size="11">0,N</text>
	<g>
		<path d="M400 127 a14 14 90 0 1 14 14 V155 h-88 V141 a14 14 90 0 1 14 -14" fill="#FFF" stroke="#FFF" stroke-width="0"/>
		<path d="M414 155 v16 a14 14 90 0 1 -14 14 H340 a14 14 90 0 1 -14 -14 V155 H88" fill="#FFF" stroke="#FFF" stroke-width="0"/>
		<rect x="326" y="127" width="88" height="58" fill="none" rx="14" stroke="#000" stroke-width="1.5"/>
		<line x1="326" y1="155" x2="414" y2="155" stroke="#000" stroke-width="1.5"/>
		<text x="334" y="148.3" fill="#000" font-family="Copperplate" font-size="18">Publier</text>
		<text x="333" y="173.1" fill="#000" font-family="Gill Sans" font-size="15">Année</text>
	</g>
</g>

<!-- Association Ecrire -->
<g>
	<line x1="67" y1="256" x2="208" y2="256" stroke="#000" stroke-width="1"/>
	<text x="114" y="272" fill="#000" font-family="Futura" font-size="11">0,N</text>
	<line x1="208" y1="156" x2="208" y2="256" stroke="#000" stroke-width="1"/>
	<text x="213" y="219" fill="#000" font-family="Futura" font-size="11">1,N</text>
	<g>
		<path d="M232 227 a14 14 90 0 1 14 14 V255 h-76 V241 a14 14 90 0 1 14 -14" fill="#FFF" stroke="#FFF" stroke-width="0"/>
		<path d="M246 255 v16 a14 14 90 0 1 -14 14 H184 a14 14 90 0 1 -14 -14 V255 H76" fill="#FFF" stroke="#FFF" stroke-width="0"/>
		<rect x="170" y="227" width="76" height="58" fill="none" rx="14" stroke="#000" stroke-width="1.5"/>
		<line x1="170" y1="255" x2="246" y2="255" stroke="#000" stroke-width="1.5"/>
		<text x="178" y="248.3" fill="#000" font-family="Copperplate" font-size="18">Ecrire</text>
	</g>
</g>

<!-- Entity Genre -->
<g>
	<g>
		<rect x="30" y="18" width="74" height="30" fill="#FFF" stroke="#FFF" stroke-width="0" opacity="1"/>
		<rect x="30" y="48" width="74" height="46" fill="#FFF" stroke="#FFF" stroke-width="0" opacity="1"/>
		<rect x="30" y="18" width="74" height="76" fill="none" stroke="#000" stroke-width="1.5" opacity="1"/>
		<line x1="30" y1="48" x2="104" y2="48" stroke="#000" stroke-width="1.5"/>
	</g>
	<text x="39" y="39.3" fill="#000" font-family="Copperplate" font-size="18">Genre</text>
	<text x="38" y="65.1" fill="#000" font-family="Gill Sans" font-size="15">id_genre</text>
	<line x1="38" y1="68" x2="94" y2="68" stroke="#000" stroke-width="1"/>
	<text x="38" y="82.1" fill="#000" font-family="Gill Sans" font-size="15">nom</text>
</g>

<!-- Entity Exemplaire -->
<g>
	<g>
		<rect x="310" y="26" width="120" height="30" fill="#FFF" stroke="#FFF" stroke-width="0" opacity="1"/>
		<rect x="310" y="56" width="120" height="30" fill="#FFF" stroke="#FFF" stroke-width="0" opacity="1"/>
		<rect x="310" y="26" width="120" height="60" fill="none" stroke="#000" stroke-width="1.5" opacity="1"/>
		<line x1="310" y1="56" x2="430" y2="56" stroke="#000" stroke-width="1.5"/>
	</g>
	<text x="319" y="47.3" fill="#000" font-family="Copperplate" font-size="18">Exemplaire</text>
	<text x="318" y="73.1" fill="#000" font-family="Gill Sans" font-size="15">id_exemplaire</text>
	<line x1="318" y1="76" x2="407" y2="76" stroke="#000" stroke-width="1"/>
</g>

<!-- Entity Emprunt -->
<g>
	<g>
		<rect x="604" y="9" width="106" height="30" fill="#FFF" stroke="#FFF" stroke-width="0" opacity="1"/>
		<rect x="604" y="39" width="106" height="64" fill="#FFF" stroke="#FFF" stroke-width="0" opacity="1"/>
		<rect x="604" y="9" width="106" height="94" fill="none" stroke="#000" stroke-width="1.5" opacity="1"/>
		<line x1="604" y1="39" x2="710" y2="39" stroke="#000" stroke-width="1.5"/>
	</g>
	<text x="617" y="30.3" fill="#000" font-family="Copperplate" font-size="18">Emprunt</text>
	<text x="612" y="56.1" fill="#000" font-family="Gill Sans" font-size="15">id_emprunt</text>
	<line x1="612" y1="59" x2="686" y2="59" stroke="#000" stroke-width="1"/>
	<text x="612" y="73.1" fill="#000" font-family="Gill Sans" font-size="15">date_emprunt</text>
	<text x="612" y="90" fill="#000" font-family="Gill Sans" font-size="15">date_retour</text>
</g>

<!-- Entity Document -->
<g>
	<g>
		<rect x="154" y="109" width="108" height="30" fill="#FFF" stroke="#FFF" stroke-width="0" opacity="1"/>
		<rect x="154" y="139" width="108" height="64" fill="#FFF" stroke="#FFF" stroke-width="0" opacity="1"/>
		<rect x="154" y="109" width="108" height="94" fill="none" stroke="#000" stroke-width="1.5" opacity="1"/>
		<line x1="154" y1="139" x2="262" y2="139" stroke="#000" stroke-width="1.5"/>
	</g>
	<text x="163" y="130.3" fill="#000" font-family="Copperplate" font-size="18">Document</text>
	<text x="162" y="156.1" fill="#000" font-family="Gill Sans" font-size="15">id_document</text>
	<line x1="162" y1="159" x2="245" y2="159" stroke="#000" stroke-width="1"/>
	<text x="162" y="173.1" fill="#000" font-family="Gill Sans" font-size="15">titre</text>
	<text x="162" y="190" fill="#000" font-family="Gill Sans" font-size="15">nbre_pages</text>
</g>

<!-- Entity Auteur -->
<g>
	<g>
		<rect x="25" y="218" width="84" height="30" fill="#FFF" stroke="#FFF" stroke-width="0" opacity="1"/>
		<rect x="25" y="248" width="84" height="46" fill="#FFF" stroke="#FFF" stroke-width="0" opacity="1"/>
		<rect x="25" y="218" width="84" height="76" fill="none" stroke="#000" stroke-width="1.5" opacity="1"/>
		<line x1="25" y1="248" x2="109" y2="248" stroke="#000" stroke-width="1.5"/>
	</g>
	<text x="34" y="239.3" fill="#000" font-family="Copperplate" font-size="18">Auteur</text>
	<text x="33" y="265.1" fill="#000" font-family="Gill Sans" font-size="15">id_auteur</text>
	<line x1="33" y1="268" x2="94" y2="268" stroke="#000" stroke-width="1"/>
	<text x="33" y="282.1" fill="#000" font-family="Gill Sans" font-size="15">nom</text>
</g>

<!-- Entity Editeur -->
<g>
	<g>
		<rect x="319" y="218" width="102" height="30" fill="#FFF" stroke="#FFF" stroke-width="0" opacity="1"/>
		<rect x="319" y="248" width="102" height="46" fill="#FFF" stroke="#FFF" stroke-width="0" opacity="1"/>
		<rect x="319" y="218" width="102" height="76" fill="none" stroke="#000" stroke-width="1.5" opacity="1"/>
		<line x1="319" y1="248" x2="421" y2="248" stroke="#000" stroke-width="1.5"/>
	</g>
	<text x="334" y="239.3" fill="#000" font-family="Copperplate" font-size="18">Editeur</text>
	<text x="327" y="265.1" fill="#000" font-family="Gill Sans" font-size="15">id_editeur</text>
	<line x1="327" y1="268" x2="392" y2="268" stroke="#000" stroke-width="1"/>
	<text x="327" y="282.1" fill="#000" font-family="Gill Sans" font-size="15">denomination</text>
</g>
</svg>